<svg width="137" height="115" viewBox="0 0 137 115" fill="none" xmlns="http://www.w3.org/2000/svg">
<path d="M98.2635 10.9954V11.9954H99.2635H123.874C127.06 11.9954 130.136 13.3776 132.418 15.8715C134.703 18.3684 136 21.7725 136 25.3386V99.7437C136 103.31 134.703 106.714 132.418 109.211C130.136 111.705 127.06 113.087 123.874 113.087H13.1257C9.93987 113.087 6.86443 111.705 4.58216 109.211C2.29718 106.714 1 103.31 1 99.7437V25.3386C1 21.7725 2.29718 18.3684 4.58216 15.8715C6.86443 13.3776 9.93987 11.9954 13.1257 11.9954H37.7365H38.7365V10.9954V1.23804H98.2635V10.9954ZM68.4967 107.019H69.4967V106.991C91.5991 106.41 109.281 86.6176 109.281 62.5447C109.281 38.1104 91.0638 18.0706 68.4967 18.0706C45.9293 18.0706 27.7257 38.1108 27.7257 62.5447C27.7257 86.9787 45.9293 107.019 68.4967 107.019ZM68.4969 34.4066L69.0766 34.4065C75.6462 34.5683 81.9342 37.4897 86.6197 42.6086C91.4455 47.8808 94.1707 55.0495 94.1715 62.5413C94.1724 70.0331 91.4488 77.2025 86.6241 82.476C81.8021 87.7466 75.2816 90.6892 68.5031 90.6901C65.1453 90.6905 61.8178 89.9684 58.7098 88.5621C55.6015 87.1556 52.771 85.0912 50.3827 82.482C47.9941 79.8726 46.0952 76.7699 44.7981 73.3491C43.5009 69.9283 42.8322 66.2591 42.8318 62.5518C42.8313 58.8445 43.4993 55.1751 44.7956 51.7539C46.092 48.3328 47.9902 45.2296 50.3782 42.6196C52.766 40.0097 55.5959 37.9445 58.7039 36.5372C61.8117 35.1301 65.139 34.4071 68.4969 34.4066Z" stroke="white" stroke-width="2"/>
</svg>
