<svg width="137" height="146" viewBox="0 0 137 146" fill="none" xmlns="http://www.w3.org/2000/svg">
<path d="M54.2428 54.2917L53.911 55.2351C57.1855 56.3865 60.6361 58.0622 63.2464 59.9804C64.5515 60.9396 65.6138 61.9355 66.342 62.9274C67.071 63.9204 67.4247 64.8524 67.4247 65.7095V71.9074H27.5437V65.7039C27.5437 64.8865 27.8915 63.9793 28.6174 62.9959C29.3412 62.0155 30.3945 61.0235 31.6813 60.0611C34.2543 58.1367 37.6287 56.4277 40.7525 55.2249L40.7621 55.2213L40.7715 55.2174C41.167 55.0558 42.0039 54.5466 42.5622 53.5309C43.1473 52.4664 43.3531 50.9797 42.653 49.0362L42.5848 48.8468L42.4485 48.6985C39.4693 45.4565 37.2726 40.203 37.2726 34.9793C37.2726 31.0012 38.4897 28.0573 40.3274 26.1159C42.1656 24.174 44.6973 23.1568 47.4842 23.1568C50.273 23.1568 52.8493 24.1756 54.7296 26.1231C56.6069 28.0673 57.8593 31.01 57.8593 34.9793C57.8593 40.1543 55.5029 45.4415 52.5187 48.6997L52.3676 48.8647L52.3012 49.0784C51.6461 51.1866 51.7737 52.6715 52.2834 53.7014C52.7897 54.7244 53.5855 55.1215 53.9134 55.2359L54.2428 54.2917ZM54.2428 54.2917C53.9368 54.185 52.0427 53.2803 53.2561 49.3751L68.4247 71.9074V65.7095C68.4247 61.1581 60.9222 56.6405 54.2428 54.2917ZM10.552 10.2729H9.55204V11.2729V78.7006V79.7006H10.552H84.4163H85.4163V78.7006V11.2729V10.2729H84.4163H10.552ZM100.921 118.106L44.7792 107.795H89.6923C96.1221 107.795 101.244 102.253 101.244 95.5575V88.6143L110.797 29.6946L110.954 28.7281L109.991 28.551L101.244 26.9429V17.5661L116.55 20.3306C116.551 20.3308 116.551 20.3309 116.552 20.331C117.096 20.432 117.62 20.6468 118.093 20.966C118.566 21.2857 118.98 21.7046 119.308 22.2013C119.636 22.6981 119.87 23.2621 119.996 23.8612C120.121 24.4605 120.134 25.0808 120.035 25.6858L120.034 25.6905L105.853 114.359C105.853 114.36 105.853 114.36 105.852 114.361C105.651 115.583 105.005 116.654 104.078 117.349C103.153 118.042 102.019 118.309 100.922 118.106L100.921 118.106ZM122.819 54.7592L124.306 45.6741L132.816 47.7036C132.818 47.7041 132.82 47.7047 132.822 47.7052C135.037 48.2706 136.448 50.7832 135.873 53.3666L135.873 53.37L116.74 140.815C116.739 140.817 116.739 140.82 116.738 140.822C116.451 142.038 115.733 143.07 114.758 143.709C113.785 144.347 112.626 144.55 111.525 144.286C111.523 144.286 111.522 144.285 111.521 144.285L29.4334 123.742C29.4311 123.742 29.4288 123.741 29.4265 123.74C28.3298 123.447 27.3655 122.703 26.7538 121.645C26.1407 120.585 25.9378 119.303 26.1965 118.078C26.1969 118.076 26.1972 118.074 26.1976 118.072L27.4787 112.34L99.5594 125.511C99.5609 125.511 99.5624 125.511 99.5639 125.512C101.356 125.856 103.199 125.737 104.937 125.165C106.493 124.653 107.92 123.793 109.125 122.651L110.721 123.044L111.715 123.29L111.936 122.289L126.445 56.6146L126.659 55.6478L125.694 55.4246L122.819 54.7592ZM1 5.65389C1 3.04986 2.97961 1.03491 5.27602 1.03491H89.6923C91.9887 1.03491 93.9684 3.04986 93.9684 5.65389V95.5575C93.9684 98.1615 91.9887 100.176 89.6923 100.176H5.27602C2.97961 100.176 1 98.1615 1 95.5575V5.65389Z" stroke="white" stroke-width="2"/>
</svg>
