<svg width="137" height="146" viewBox="0 0 137 146" fill="none" xmlns="http://www.w3.org/2000/svg">
<path d="M33.2682 128.049C32.2739 127.942 32.2739 127.942 32.2739 127.942L32.2738 127.943L32.2737 127.944L32.2733 127.947L32.2726 127.955L32.2708 127.974C32.2695 127.989 32.2681 128.008 32.2667 128.03C32.2639 128.075 32.2612 128.134 32.2608 128.206C32.2599 128.345 32.2674 128.542 32.3036 128.762C32.3689 129.158 32.5676 129.863 33.2407 130.284C33.8002 130.633 34.3801 130.656 34.7652 130.616C34.9625 130.595 35.1291 130.557 35.2488 130.522C35.2947 130.509 35.3348 130.497 35.3683 130.485C35.6143 130.427 35.8644 130.311 36.0588 130.214C36.3242 130.081 36.6394 129.904 36.9904 129.694C37.6943 129.273 38.5926 128.69 39.6161 128.002C41.6658 126.622 44.2604 124.787 46.8927 122.89C51.8409 119.325 56.9483 115.525 58.8793 114.083C62.0067 114.53 65.222 114.761 68.5 114.761C99.6171 114.761 125.156 93.6251 125.156 67.2018C125.156 40.7726 99.6172 19.6369 68.5 19.6369C37.3828 19.6369 11.8438 40.7726 11.8438 67.2018C11.8438 84.0143 22.2234 98.7184 37.7563 107.156C37.1883 109.239 36.0041 113.584 34.8832 117.76C34.2397 120.158 33.6165 122.502 33.1424 124.331C32.6801 126.114 32.3334 127.504 32.2774 127.913L32.2755 127.927L32.2739 127.942L33.2682 128.049ZM40.9402 58.9578H39.9402V59.9578V80.1998C39.9402 81.4524 38.9374 82.4523 37.7264 82.4523C36.5165 82.4523 35.5183 81.4596 35.5183 80.1998V59.9578V58.9578H34.5183H29.5495C29.0385 58.9086 28.5496 58.6599 28.1822 58.2403C27.8051 57.8094 27.5875 57.2325 27.5875 56.6236C27.5875 56.0146 27.8051 55.4377 28.1822 55.0069C28.5496 54.5873 29.0385 54.3385 29.5495 54.2893H45.9032C46.4143 54.3385 46.9032 54.5873 47.2705 55.0069C47.6477 55.4377 47.8652 56.0146 47.8652 56.6236C47.8652 57.2325 47.6477 57.8094 47.2705 58.2402C46.9032 58.6599 46.4143 58.9086 45.9032 58.9578H40.9402ZM99.9543 67.3333L106.737 76.8679H106.718L107.858 78.4521C108.038 78.7027 108.172 78.9919 108.249 79.3036C108.326 79.6154 108.343 79.9412 108.301 80.2611L108.3 80.2622C108.258 80.5816 108.157 80.8866 108.005 81.1596C107.852 81.4325 107.653 81.6667 107.42 81.8509L107.413 81.8571C107.032 82.1649 106.575 82.3254 106.113 82.3251L106.107 82.3251C105.775 82.327 105.445 82.2465 105.143 82.0868C104.84 81.9269 104.571 81.6908 104.361 81.3926L104.358 81.3886L96.8289 70.8073L96.1223 69.8143L95.2864 70.7012L94.1733 71.8823L93.901 72.1712V72.5682V79.9982C93.9 80.6552 93.6533 81.274 93.2318 81.722C92.8126 82.1676 92.2574 82.4072 91.6912 82.4099C91.1244 82.4094 90.5681 82.1708 90.1482 81.7253C89.726 81.2773 89.4792 80.6576 89.4792 79.9999V56.7147C89.5087 56.083 89.7647 55.498 90.1791 55.0764C90.5957 54.6526 91.1382 54.4269 91.6901 54.4269C92.242 54.4269 92.7845 54.6526 93.2011 55.0764C93.6155 55.498 93.8716 56.083 93.901 56.7147V64.022V66.5411L95.6288 64.7078L104.586 55.2033C104.587 55.2027 104.588 55.2021 104.588 55.2015C104.731 55.0526 104.896 54.9382 105.074 54.8619C105.252 54.7853 105.44 54.7477 105.629 54.7496H105.638C106.133 54.7496 106.688 54.983 107.125 55.447L107.132 55.4541C107.515 55.8526 107.757 56.396 107.797 56.9858L107.798 56.9951C107.817 57.2404 107.786 57.4864 107.708 57.7154C107.631 57.9431 107.509 58.1462 107.356 58.3126C107.355 58.3136 107.354 58.3146 107.353 58.3156L100.042 66.0675L99.4786 66.6645L99.9543 67.3333ZM86.2314 79.7092L86.2293 79.8091C86.2165 80.4098 85.9794 80.9688 85.5875 81.3669C85.1975 81.763 84.6884 81.9674 84.1746 81.9559L84.1634 81.9556H84.1523H73.8544H73.8422L73.83 81.9559C73.574 81.9622 73.3181 81.915 73.0761 81.8154C72.834 81.7158 72.6088 81.565 72.4149 81.3684L71.7029 82.0706L72.4149 81.3684C72.2209 81.1717 72.0622 80.9332 71.9508 80.665C71.8405 80.3996 71.7793 80.112 71.7719 79.8187V56.6932C71.7719 55.3335 72.8307 54.2893 74.0542 54.2893C75.2754 54.2893 76.3308 55.3312 76.3308 56.6932V76.711V77.711H77.3308H84.1523C85.246 77.711 86.169 78.5883 86.2314 79.7092ZM60.0558 56.9716L60.1528 56.9559L60.0635 56.9879L67.7326 78.4052C68.1859 79.9112 68.1682 80.8031 68.0347 81.3042C67.9135 81.7586 67.6866 81.9407 67.4867 82.0379C66.9814 82.2833 66.4352 82.4093 65.8845 82.4099C64.7756 82.4096 64.2816 81.9487 64.163 81.5922L64.1591 81.5805L64.1549 81.5689L62.5623 77.1474L62.3242 76.4863H61.6215H51.8317H51.129L50.8908 77.1474L49.2982 81.5689L49.294 81.5805L49.2902 81.5922C49.1715 81.9489 48.6772 82.4099 47.5675 82.4099H47.5651C47.0166 82.4112 46.4722 82.2876 45.9683 82.0449C45.7666 81.9446 45.5395 81.758 45.4185 81.3037C45.2848 80.8015 45.2673 79.9111 45.7203 78.4118L53.3897 56.9879L53.3934 56.9773L53.397 56.9666C53.8413 55.6317 55.1739 54.338 56.7238 54.2896C58.2794 54.3381 59.6115 55.6318 60.0558 56.9716ZM52.5722 71.1387L52.1358 72.4537H53.5213H59.9318H61.3165L60.8811 71.1393L57.6787 61.4725L56.7303 58.6096L55.7803 61.472L52.5722 71.1387ZM10.7031 1.19507H126.297C131.598 1.19507 136 5.77274 136 11.5516V134.203C136 139.976 131.603 144.559 126.297 144.559H10.7031C5.40195 144.559 1 139.981 1 134.203V11.5516C1 5.77808 5.39692 1.19507 10.7031 1.19507Z" stroke="white" stroke-width="2"/>
</svg>
