<svg width="64" height="65" viewBox="0 0 64 65" fill="none" xmlns="http://www.w3.org/2000/svg">
<path fill-rule="evenodd" clip-rule="evenodd" d="M18.8073 0.983265C22.2196 0.826769 23.3076 0.791992 32 0.791992C40.6924 0.791992 41.7804 0.829667 45.1898 0.983265C48.5993 1.13686 50.9265 1.6788 52.9629 2.46418C55.0953 3.26695 57.0298 4.52181 58.6298 6.14473C60.2589 7.73577 61.5156 9.66009 62.3186 11.7873C63.1098 13.8159 63.6509 16.1344 63.808 19.5251C63.9651 22.9304 64 24.0142 64 32.6708C64 41.3302 63.9622 42.4141 63.808 45.8135C63.6538 49.2043 63.1098 51.5227 62.3186 53.5514C61.5156 55.6788 60.2568 57.6064 58.6298 59.1997C57.0298 60.8226 55.0953 62.0746 52.9629 62.8745C50.9265 63.6628 48.5993 64.2018 45.1956 64.3583C41.7804 64.5148 40.6924 64.5496 32 64.5496C23.3076 64.5496 22.2196 64.5119 18.8073 64.3583C15.4036 64.2047 13.0764 63.6628 11.04 62.8745C8.9045 62.0745 6.96966 60.8205 5.37018 59.1997C3.7422 57.6077 2.48237 55.6811 1.67855 53.5543C0.890182 51.5256 0.349091 49.2072 0.192 45.8164C0.034909 42.4112 0 41.3273 0 32.6708C0 24.0113 0.0378181 22.9275 0.192 19.5309C0.346182 16.1344 0.890182 13.8159 1.67855 11.7873C2.48356 9.66033 3.74435 7.73378 5.37309 6.14183C6.9703 4.52036 8.90319 3.26533 11.0371 2.46418C13.0735 1.6788 15.4007 1.13976 18.8044 0.983265H18.8073ZM44.9309 6.72145C41.5564 6.56785 40.544 6.53597 32 6.53597C23.456 6.53597 22.4436 6.56785 19.0691 6.72145C15.9476 6.86345 14.2545 7.38221 13.1258 7.81982C11.6335 8.39943 10.5658 9.08627 9.44582 10.202C8.38413 11.231 7.56707 12.4836 7.05455 13.8681C6.61527 14.9925 6.09455 16.6792 5.952 19.7889C5.79782 23.1506 5.76582 24.1591 5.76582 32.6708C5.76582 41.1824 5.79782 42.1909 5.952 45.5527C6.09455 48.6623 6.61527 50.349 7.05455 51.4735C7.56655 52.8559 8.384 54.1107 9.44582 55.1395C10.4785 56.1973 11.7382 57.0117 13.1258 57.5217C14.2545 57.9594 15.9476 58.4781 19.0691 58.6201C22.4436 58.7737 23.4531 58.8056 32 58.8056C40.5469 58.8056 41.5564 58.7737 44.9309 58.6201C48.0524 58.4781 49.7455 57.9594 50.8742 57.5217C52.3666 56.9421 53.4342 56.2553 54.5542 55.1395C55.616 54.1107 56.4335 52.8559 56.9455 51.4735C57.3847 50.349 57.9055 48.6623 58.048 45.5527C58.2022 42.1909 58.2342 41.1824 58.2342 32.6708C58.2342 24.1591 58.2022 23.1506 58.048 19.7889C57.9055 16.6792 57.3847 14.9925 56.9455 13.8681C56.3636 12.3814 55.6742 11.3178 54.5542 10.202C53.5212 9.14444 52.2639 8.33049 50.8742 7.81982C49.7455 7.38221 48.0524 6.86345 44.9309 6.72145ZM27.9127 42.4981C30.1954 43.4447 32.7371 43.5725 35.1038 42.8596C37.4705 42.1467 39.5153 40.6373 40.889 38.5893C42.2628 36.5414 42.8802 34.0818 42.6358 31.6307C42.3914 29.1796 41.3004 26.889 39.5491 25.1503C38.4327 24.0388 37.0828 23.1877 35.5966 22.6584C34.1104 22.129 32.5249 21.9345 30.9542 22.0888C29.3835 22.2431 27.8666 22.7425 26.5129 23.5509C25.1591 24.3594 24.0022 25.4567 23.1252 26.7641C22.2483 28.0714 21.6733 29.5562 21.4415 31.1115C21.2097 32.6668 21.327 34.254 21.7848 35.7587C22.2427 37.2635 23.0298 38.6484 24.0894 39.8137C25.149 40.9791 26.4548 41.8959 27.9127 42.4981ZM20.3695 21.0843C21.8968 19.5627 23.71 18.3558 25.7056 17.5323C27.7012 16.7088 29.84 16.285 32 16.285C34.16 16.285 36.2988 16.7088 38.2944 17.5323C40.29 18.3558 42.1032 19.5627 43.6305 21.0843C45.1579 22.6058 46.3694 24.4122 47.196 26.4002C48.0226 28.3882 48.4481 30.519 48.4481 32.6708C48.4481 34.8226 48.0226 36.9533 47.196 38.9413C46.3694 40.9294 45.1579 42.7357 43.6305 44.2573C40.5459 47.3302 36.3623 49.0565 32 49.0565C27.6377 49.0565 23.4541 47.3302 20.3695 44.2573C17.2848 41.1843 15.5519 37.0166 15.5519 32.6708C15.5519 28.325 17.2848 24.1572 20.3695 21.0843ZM52.096 18.7253C52.4745 18.3696 52.7775 17.9419 52.9871 17.4674C53.1966 16.993 53.3085 16.4815 53.3161 15.9632C53.3237 15.4449 53.2268 14.9304 53.0312 14.4501C52.8356 13.9697 52.5453 13.5334 52.1773 13.1669C51.8094 12.8003 51.3714 12.5111 50.8893 12.3162C50.4071 12.1214 49.8906 12.0248 49.3704 12.0324C48.8501 12.04 48.3367 12.1514 47.8604 12.3602C47.3842 12.569 46.9549 12.8709 46.5978 13.2479C45.9035 13.9812 45.5233 14.9552 45.538 15.9632C45.5528 16.9712 45.9613 17.9337 46.6768 18.6466C47.3924 19.3594 48.3586 19.7663 49.3704 19.781C50.3822 19.7957 51.3599 19.417 52.096 18.7253Z" fill="#87827D"/>
</svg>
