<svg width="64" height="65" viewBox="0 0 64 65" fill="none" xmlns="http://www.w3.org/2000/svg">
<path fill-rule="evenodd" clip-rule="evenodd" d="M46.44 38.9988C45.6453 38.603 41.7493 36.6956 41.024 36.4299C40.2987 36.1669 39.7707 36.0368 39.24 36.8284C38.712 37.6148 37.1947 39.3947 36.7333 39.9207C36.2693 40.4493 35.808 40.5131 35.016 40.1199C34.224 39.7214 31.6693 38.8899 28.6427 36.2015C26.288 34.1081 24.696 31.5233 24.2347 30.7316C23.7733 29.9426 24.184 29.5149 24.5813 29.1217C24.9387 28.7684 25.3733 28.1999 25.7707 27.7403C26.168 27.2781 26.2987 26.9486 26.5627 26.42C26.8293 25.894 26.696 25.4344 26.496 25.0386C26.2987 24.6427 24.7147 20.7562 24.0533 19.1755C23.4107 17.6374 22.7573 17.8473 22.272 17.8207C21.808 17.7994 21.28 17.7941 20.752 17.7941C20.224 17.7941 19.3653 17.9907 18.64 18.7824C17.912 19.5714 15.8667 21.4814 15.8667 25.368C15.8667 29.2519 18.704 33.0056 19.1013 33.5343C19.4987 34.0603 24.688 42.0353 32.6373 45.4543C34.5307 46.2672 36.0053 46.7533 37.1547 47.1146C39.0533 47.7177 40.7813 47.6327 42.1467 47.4281C43.6667 47.2023 46.8347 45.518 47.496 43.6744C48.1547 41.8307 48.1547 40.2501 47.9573 39.9207C47.76 39.5912 47.232 39.3947 46.4373 38.9988H46.44ZM31.9813 58.6654H31.9707C27.2491 58.6662 22.6143 57.4018 18.552 55.0046L17.592 54.4361L7.61333 57.0449L10.2773 47.3537L9.65067 46.3602C7.01103 42.1743 5.61412 37.3299 5.62133 32.3866C5.62667 17.9084 17.4507 6.12914 31.992 6.12914C39.032 6.12914 45.6507 8.8654 50.6267 13.8279C53.081 16.2628 55.0263 19.1584 56.3501 22.3472C57.6738 25.536 58.3497 28.9546 58.3387 32.4052C58.3333 46.8835 46.5093 58.6654 31.9813 58.6654ZM54.4133 10.0582C51.4752 7.11187 47.9793 4.77572 44.1282 3.18514C40.2772 1.59455 36.1476 0.781163 31.9787 0.792101C14.5013 0.792101 0.272 14.9649 0.266667 32.384C0.264 37.9521 1.72267 43.3875 4.49867 48.1773L0 64.5497L16.8107 60.1557C21.461 62.6798 26.6722 64.0023 31.968 64.0024H31.9813C49.4587 64.0024 63.688 49.8296 63.6933 32.4079C63.7062 28.2564 62.8927 24.1436 61.2998 20.3073C59.7069 16.4711 57.3663 12.9875 54.4133 10.0582Z" fill="#87827D"/>
</svg>
